<svg width="14" height="10" viewBox="0 0 14 10" fill="none" xmlns="http://www.w3.org/2000/svg">
<path d="M12.5771 4.56849L13.2886 3.85702L14 4.56849L13.2886 5.27996L12.5771 4.56849ZM1.00617 5.57466C0.450476 5.57466 0 5.12418 0 4.56849C0 4.0128 0.450476 3.56232 1.00617 3.56232V5.57466ZM8.72012 0.711515L9.43159 4.68383e-05L13.2886 3.85702L12.5771 4.56849L11.8656 5.27996L8.00865 1.42298L8.72012 0.711515ZM12.5771 4.56849L13.2886 5.27996L9.43159 9.13693L8.72012 8.42547L8.00865 7.714L11.8656 3.85702L12.5771 4.56849ZM12.5771 4.56849V5.57466H1.00617V4.56849V3.56232H12.5771V4.56849Z" fill="#33363F"/>
</svg>
