<svg width="28" height="27" viewBox="0 0 28 27" fill="none" xmlns="http://www.w3.org/2000/svg">
<path fill-rule="evenodd" clip-rule="evenodd" d="M15.75 14C15.75 13.6798 15.6581 13.384 15.5076 13.125H12.4924C12.3419 13.384 12.25 13.6798 12.25 14C12.25 14.966 13.034 15.75 14 15.75C14.966 15.75 15.75 14.966 15.75 14ZM17.5 14C17.5 15.9329 15.9329 17.5 14 17.5C12.0671 17.5 10.5 15.9329 10.5 14C10.5 13.6955 10.5473 13.4041 10.6234 13.125H0V22.75C0 24.6829 1.56712 26.25 3.5 26.25H24.5C26.4329 26.25 28 24.6829 28 22.75V13.125H17.3766C17.4527 13.4041 17.5 13.6955 17.5 14ZM17.5 3.5H10.5V2.625C10.5 2.142 10.892 1.75 11.375 1.75H16.625C17.108 1.75 17.5 2.142 17.5 2.625V3.5ZM24.5 3.5H19.25V1.75C19.25 0.784 18.466 0 17.5 0H10.5C9.534 0 8.75 0.784 8.75 1.75V3.5H3.5C1.56712 3.5 0 5.06712 0 7V11.375H28V7C28 5.06712 26.4329 3.5 24.5 3.5Z" fill="url(#paint0_linear_68_1038)"/>
<defs>
<linearGradient id="paint0_linear_68_1038" x1="0" y1="13.125" x2="28" y2="13.125" gradientUnits="userSpaceOnUse">
<stop stop-color="#B83AFD"/>
<stop offset="1" stop-color="#FFA2A2"/>
</linearGradient>
</defs>
</svg>
