<svg width="30" height="21" viewBox="0 0 30 21" fill="none" xmlns="http://www.w3.org/2000/svg">
<path d="M8.47363 5.38672C9.42174 5.01099 10.4558 4.906 11.46 5.08398C12.4642 5.26202 13.3989 5.71668 14.1602 6.39551C14.9214 7.07436 15.4791 7.95126 15.7705 8.92871C16.4023 11.0477 18.3513 12.5 20.5625 12.5H23.2471C23.7111 12.5 24.1562 12.6846 24.4844 13.0127C24.8126 13.3409 24.9971 13.7859 24.9971 14.25C24.9971 14.7141 24.8126 15.1591 24.4844 15.4873C24.1562 15.8154 23.7111 16 23.2471 16H10.499C9.4791 15.9997 8.47921 15.7154 7.61133 15.1797C6.74341 14.6439 6.04131 13.8775 5.58398 12.9658C5.12673 12.0542 4.93202 11.0335 5.02148 10.0176C5.11097 9.00159 5.48122 8.03058 6.09082 7.21289C6.70047 6.39518 7.52543 5.76253 8.47363 5.38672Z" stroke="url(#paint0_linear_68_1030)" stroke-width="10" stroke-linecap="round" stroke-linejoin="round"/>
<defs>
<linearGradient id="paint0_linear_68_1030" x1="29.9973" y1="10.5" x2="0" y2="10.5" gradientUnits="userSpaceOnUse">
<stop stop-color="#E61655"/>
<stop offset="1" stop-color="#FFD93B"/>
</linearGradient>
</defs>
</svg>
