<svg  viewBox="0 0 29 29" fill="none" xmlns="http://www.w3.org/2000/svg">
<path d="M14.5001 3.07033C14.5564 3.07035 14.612 3.0818 14.664 3.10331C14.7162 3.12491 14.7641 3.15637 14.804 3.19626L17.2436 5.63594C17.8117 6.20434 18.521 6.61122 19.2985 6.8143C20.0764 7.01744 20.8945 7.00959 21.6682 6.79131C21.9852 6.70187 22.289 6.57592 22.5767 6.42151C22.4692 6.62185 22.3754 6.82992 22.2989 7.04517L22.2079 7.33202C21.9896 8.10578 21.9818 8.92386 22.185 9.70173C22.388 10.4793 22.7949 11.1885 23.3633 11.7566L25.803 14.1953C25.8427 14.2351 25.8744 14.2823 25.8959 14.3342C25.9175 14.3863 25.9289 14.4427 25.9289 14.4991C25.9289 14.5554 25.9174 14.6111 25.8959 14.663C25.8743 14.7152 25.8429 14.7631 25.803 14.803L24.9794 15.6255C24.8021 15.3827 24.6085 15.151 24.3987 14.9329C23.5738 14.0751 22.5349 13.4527 21.3894 13.1299C20.2441 12.8071 19.0336 12.7953 17.8823 13.0959C16.731 13.3965 15.6803 13.9984 14.8389 14.8399C13.9976 15.6816 13.3952 16.7327 13.0949 17.8843C12.7946 19.0358 12.8066 20.2471 13.1299 21.3924C13.4531 22.5376 14.076 23.5762 14.9339 24.4007C15.1516 24.61 15.3833 24.8025 15.6255 24.9794L14.805 25.801L14.804 25.802C14.7641 25.8418 14.7161 25.8734 14.664 25.8949C14.6121 25.9164 14.5564 25.9279 14.5001 25.9279C14.4437 25.9279 14.3873 25.9165 14.3352 25.8949C14.2833 25.8734 14.2361 25.8417 14.1963 25.802L11.7556 23.3613C11.2586 22.8642 10.6538 22.4905 9.98957 22.2689L9.70173 22.184L9.40789 22.117C8.81799 22.0042 8.21143 22.0107 7.62386 22.135L7.33202 22.2069C7.0146 22.2965 6.70963 22.421 6.42151 22.5757C6.57634 22.2875 6.7027 21.9828 6.79231 21.6652C6.98322 20.9883 7.01286 20.2775 6.88126 19.5894L6.8153 19.2965L6.72935 19.0077C6.50758 18.343 6.13357 17.7378 5.63594 17.2406H5.63694L3.19626 14.802C3.15679 14.7623 3.12575 14.7148 3.10431 14.663C3.0828 14.611 3.07136 14.5554 3.07133 14.4991C3.07133 14.4427 3.08272 14.3863 3.10431 14.3342C3.12588 14.2823 3.15749 14.2351 3.19726 14.1953L4.01982 13.3717C4.19732 13.6149 4.39142 13.8469 4.6015 14.0654C5.42634 14.9229 6.46464 15.5455 7.60987 15.8684C8.75527 16.1912 9.96653 16.203 11.118 15.9024C12.2695 15.6017 13.3199 14.999 14.1613 14.1573C15.0026 13.3157 15.6051 12.2655 15.9054 11.114C16.2057 9.96238 16.1936 8.75122 15.8704 7.60587C15.5472 6.46061 14.9243 5.42216 14.0664 4.5975C13.8484 4.38799 13.6163 4.1949 13.3737 4.01782L14.1953 3.19726L14.1963 3.19626C14.2361 3.15647 14.2833 3.1249 14.3352 3.10331C14.3873 3.08172 14.4437 3.07033 14.5001 3.07033ZM4.57552 24.4207C4.39326 24.7606 4.25453 25.1239 4.16374 25.5021C4.14072 25.598 4.09213 25.686 4.02381 25.757C3.95551 25.828 3.86977 25.8802 3.77495 25.9069C3.68035 25.9336 3.58022 25.9347 3.48511 25.9099C3.38977 25.885 3.30192 25.8347 3.23224 25.765C3.16273 25.6954 3.11318 25.6083 3.08832 25.5131C3.06346 25.4178 3.06456 25.3171 3.09132 25.2223C3.11808 25.1276 3.16934 25.0416 3.24024 24.9734C3.31078 24.9056 3.39807 24.8567 3.4931 24.8335L3.4941 24.8345C3.87275 24.7439 4.23532 24.603 4.57552 24.4207ZM26.0838 18.0122L26.0828 18.0092L26.0818 18.0072C26.0822 18.0089 26.0834 18.0105 26.0838 18.0122ZM25.2253 3.09132C25.32 3.0647 25.42 3.06352 25.5151 3.08832C25.6105 3.11322 25.6973 3.16355 25.767 3.23324C25.8367 3.30294 25.8871 3.38976 25.9119 3.48511C25.9367 3.58026 25.9356 3.6803 25.9089 3.77495C25.8822 3.86979 25.8301 3.95653 25.759 4.02481C25.688 4.09289 25.5998 4.1408 25.5041 4.16374C25.1262 4.25438 24.7634 4.39354 24.4237 4.57552C24.606 4.23554 24.7448 3.8725 24.8355 3.4941L24.8365 3.4951C24.8595 3.39938 24.9072 3.3112 24.9754 3.24024C25.0437 3.16921 25.1305 3.11805 25.2253 3.09132Z" stroke="url(#paint0_linear_68_1015)" stroke-width="6" stroke-linecap="round" stroke-linejoin="round"/>
<defs>
<linearGradient id="paint0_linear_68_1015" x1="0.171782" y1="0.170704" x2="36.504" y2="36.503" gradientUnits="userSpaceOnUse">
<stop offset="0.0721154" stop-color="#881977"/>
<stop offset="1" stop-color="white"/>
</linearGradient>
</defs>
</svg>
