<svg width="30" height="21" viewBox="0 0 30 21" fill="none" xmlns="http://www.w3.org/2000/svg">
<path d="M1.5 8.99999H12V13.5C12 13.8978 11.842 14.2793 11.5607 14.5606C11.2793 14.842 10.8978 15 10.5 15H3C2.20435 15 1.44129 14.6839 0.878679 14.1213C0.31607 13.5587 0 12.7956 0 12V10.5C0 10.1022 0.158035 9.72064 0.439339 9.43933C0.720644 9.15803 1.10217 8.99999 1.5 8.99999ZM27 0H16.5C15.7043 0 14.9413 0.316071 14.3787 0.878679C13.8161 1.44129 13.5 2.20435 13.5 3V18C13.5 18.7956 13.8161 19.5587 14.3787 20.1213C14.9413 20.6839 15.7043 21 16.5 21H27C27.7956 21 28.5587 20.6839 29.1213 20.1213C29.6839 19.5587 30 18.7956 30 18V3C30 2.20435 29.6839 1.44129 29.1213 0.878679C28.5587 0.316071 27.7956 0 27 0Z" fill="url(#paint0_linear_68_1043)"/>
<defs>
<linearGradient id="paint0_linear_68_1043" x1="15" y1="-7.8824e-07" x2="33.5142" y2="20.9143" gradientUnits="userSpaceOnUse">
<stop stop-color="#E61655"/>
<stop offset="1" stop-color="#6680FF"/>
</linearGradient>
</defs>
</svg>
