<svg width="28" height="24" viewBox="0 0 28 24" fill="none" xmlns="http://www.w3.org/2000/svg">
<path d="M1.47369 17.6842V2.94737C1.47369 2.16568 1.78421 1.416 2.33695 0.863265C2.88969 0.310526 3.63936 0 4.42106 0H25.0526C25.8343 0 26.584 0.310526 27.1368 0.863265C27.6895 1.416 28 2.16568 28 2.94737V5.89474C28 6.28559 27.8448 6.66042 27.5684 6.93679C27.292 7.21316 26.9172 7.36843 26.5263 7.36843H16.2105C15.038 7.36843 13.9135 7.83421 13.0844 8.66332C12.2553 9.49243 11.7895 10.6169 11.7895 11.7895V22.1053C11.7895 22.4961 11.6342 22.871 11.3578 23.1473C11.0815 23.4237 10.7066 23.579 10.3158 23.579H2.94737C2.16568 23.579 1.416 23.2684 0.863265 22.7157C0.310526 22.163 0 21.4133 0 20.6316V19.1579C0 18.7671 0.155263 18.3922 0.431632 18.1159C0.708002 17.8395 1.08284 17.6842 1.47369 17.6842Z" fill="url(#paint0_linear_68_1042)"/>
<defs>
<linearGradient id="paint0_linear_68_1042" x1="5.13683" y1="-6.48421" x2="14" y2="23.579" gradientUnits="userSpaceOnUse">
<stop stop-color="#E61655"/>
<stop offset="1" stop-color="#8E2DFE"/>
</linearGradient>
</defs>
</svg>
