<svg width="26" height="30" viewBox="0 0 26 30" fill="none" xmlns="http://www.w3.org/2000/svg">
<path d="M0 27.8384C0 28.4327 0.205703 28.9469 0.617108 29.3812C1.02851 29.8154 1.54277 30.0211 2.15988 29.9983H23.5872C24.1586 29.9983 24.6615 29.7926 25.0957 29.3812C25.53 28.9698 25.7357 28.4555 25.7128 27.8384C25.7128 26.8099 25.4728 25.77 24.9929 24.7186C24.5129 23.6672 23.8844 22.7301 23.1073 21.9073C22.3302 21.0845 21.4388 20.3188 20.4331 19.6103C19.4275 18.9018 18.399 18.3647 17.3476 17.999C18.6047 17.2219 19.5989 16.1819 20.3303 14.8792C21.0617 13.5764 21.4274 12.1822 21.4274 10.6965V8.57094C21.4274 6.19393 20.5931 4.17119 18.9246 2.50271C17.2562 0.834238 15.2334 0 12.8564 0C10.4794 0 8.45666 0.834238 6.78819 2.50271C5.11971 4.17119 4.28547 6.19393 4.28547 8.57094V10.6965C4.28547 12.205 4.65116 13.5992 5.38255 14.8792C6.11394 16.1591 7.10817 17.199 8.36524 17.999C7.29101 18.3875 6.2625 18.9246 5.2797 19.6103C4.2969 20.296 3.40552 21.0617 2.60557 21.9073C1.80561 22.753 1.17708 23.6901 0.719959 24.7186C0.262842 25.7471 0.0228558 26.787 0 27.8384Z" fill="url(#paint0_linear_68_1040)"/>
<defs>
<linearGradient id="paint0_linear_68_1040" x1="-5.29382" y1="-11.235" x2="22.4357" y2="27.5863" gradientUnits="userSpaceOnUse">
<stop stop-color="#002BFF"/>
<stop offset="1" stop-color="#E61655"/>
</linearGradient>
</defs>
</svg>
