<svg  viewBox="0 0 81 26" fill="none" xmlns="http://www.w3.org/2000/svg">
<path d="M78.652 12.8515C77.938 12.8515 77.3613 12.6593 76.9219 12.2748C76.4962 11.8766 76.2834 11.3823 76.2834 10.7919C76.2834 10.1877 76.4962 9.68654 76.9219 9.28834C77.3613 8.89014 77.938 8.69104 78.652 8.69104C79.3523 8.69104 79.9152 8.89014 80.3409 9.28834C80.7803 9.68654 81 10.1877 81 10.7919C81 11.3823 80.7803 11.8766 80.3409 12.2748C79.9152 12.6593 79.3523 12.8515 78.652 12.8515ZM80.6498 13.9225V25.4771H76.6129V13.9225H80.6498Z" fill="#3D3D3D"/>
<path d="M71.4379 15.9621C71.891 15.303 72.4403 14.7812 73.0856 14.3968C73.731 14.0123 74.4244 13.8201 75.1659 13.8201V18.1247H74.0331C73.1543 18.1247 72.5021 18.2964 72.0764 18.6396C71.6507 18.9829 71.4379 19.5802 71.4379 20.4315V25.4776H67.401V13.9231H71.4379V15.9621Z" fill="#3D3D3D"/>
<path d="M52.7425 19.6894C52.7425 18.4948 52.9553 17.4512 53.381 16.5587C53.8204 15.6662 54.4108 14.9797 55.1523 14.4991C55.9075 14.0185 56.7451 13.7782 57.665 13.7782C58.4614 13.7782 59.148 13.9361 59.7247 14.2519C60.3014 14.5677 60.7476 14.9934 61.0635 15.5289V13.9224H65.1004V25.477H61.0635V23.8704C60.7476 24.406 60.2945 24.8316 59.7041 25.1474C59.1274 25.4632 58.4477 25.6211 57.665 25.6211C56.7451 25.6211 55.9075 25.3809 55.1523 24.9003C54.4108 24.4197 53.8204 23.7331 53.381 22.8406C52.9553 21.9344 52.7425 20.884 52.7425 19.6894ZM61.0635 19.6894C61.0635 18.9479 60.8575 18.3643 60.4456 17.9387C60.0474 17.513 59.553 17.3002 58.9626 17.3002C58.3585 17.3002 57.8573 17.513 57.4591 17.9387C57.0609 18.3506 56.8618 18.9342 56.8618 19.6894C56.8618 20.4308 57.0609 21.0213 57.4591 21.4607C57.8573 21.8863 58.3585 22.0992 58.9626 22.0992C59.553 22.0992 60.0474 21.8863 60.4456 21.4607C60.8575 21.035 61.0635 20.4446 61.0635 19.6894Z" fill="#3D3D3D"/>
<path d="M45.2145 22.0374V25.477H43.4638C40.5116 25.477 39.0355 24.0147 39.0355 21.09V17.2797H37.6144V13.9225H39.0355V11.1213H43.093V13.9225H45.1939V17.2797H43.093V21.1518C43.093 21.4676 43.1617 21.6942 43.299 21.8315C43.45 21.9688 43.6972 22.0374 44.0405 22.0374H45.2145Z" fill="#3D3D3D"/>
<path d="M31.6134 25.6211C30.5699 25.6211 29.6362 25.4495 28.8123 25.1062C28.0022 24.7492 27.3568 24.2686 26.8763 23.6645C26.4094 23.0466 26.1485 22.3532 26.0936 21.5842H30.0069C30.0618 21.955 30.2335 22.2433 30.5218 22.4493C30.8102 22.6553 31.1672 22.7582 31.5928 22.7582C31.9224 22.7582 32.1833 22.6896 32.3755 22.5523C32.5677 22.415 32.6639 22.2365 32.6639 22.0168C32.6639 21.7284 32.506 21.5156 32.1901 21.3783C31.8743 21.241 31.3526 21.0899 30.6248 20.9252C29.801 20.7604 29.1144 20.575 28.5652 20.3691C28.0159 20.1631 27.5353 19.8267 27.1234 19.3598C26.7252 18.893 26.5261 18.2614 26.5261 17.465C26.5261 16.7784 26.7115 16.1605 27.0822 15.6113C27.453 15.0483 27.9953 14.6021 28.7093 14.2725C29.4371 13.943 30.309 13.7782 31.3251 13.7782C32.8355 13.7782 34.0232 14.1489 34.8883 14.8904C35.7533 15.6319 36.2545 16.6068 36.3918 17.8151H32.7462C32.6776 17.4444 32.5128 17.1629 32.2519 16.9706C32.0048 16.7647 31.6684 16.6617 31.2427 16.6617C30.9132 16.6617 30.6591 16.7235 30.4806 16.8471C30.3159 16.9706 30.2335 17.1423 30.2335 17.362C30.2335 17.6366 30.3914 17.8494 30.7072 18.0005C31.023 18.1378 31.5311 18.2819 32.2313 18.433C33.0689 18.6115 33.7623 18.8106 34.3116 19.0303C34.8745 19.25 35.362 19.607 35.7739 20.1013C36.1996 20.5819 36.4124 21.241 36.4124 22.0786C36.4124 22.7514 36.2133 23.3555 35.8151 23.891C35.4306 24.4266 34.8745 24.8522 34.1468 25.168C33.4328 25.4701 32.5883 25.6211 31.6134 25.6211Z" fill="#3D3D3D"/>
<path d="M25.0385 19.5658C25.0385 19.8816 25.0179 20.1974 24.9767 20.5132H17.3355C17.3767 21.1449 17.5483 21.6186 17.8504 21.9344C18.1662 22.2365 18.5644 22.3875 19.045 22.3875C19.7178 22.3875 20.1984 22.0854 20.4867 21.4813H24.7914C24.6129 22.2777 24.2627 22.9917 23.741 23.6233C23.2329 24.2412 22.5876 24.7286 21.8049 25.0856C21.0222 25.4426 20.1572 25.6211 19.2097 25.6211C18.0701 25.6211 17.054 25.3809 16.1615 24.9003C15.2827 24.4197 14.5893 23.7331 14.0812 22.8406C13.5869 21.9481 13.3398 20.8977 13.3398 19.6894C13.3398 18.481 13.5869 17.4375 14.0812 16.5587C14.5755 15.6662 15.2621 14.9797 16.1409 14.4991C17.0334 14.0185 18.0563 13.7782 19.2097 13.7782C20.3494 13.7782 21.3586 14.0116 22.2374 14.4785C23.1162 14.9453 23.8027 15.6181 24.2971 16.4969C24.7914 17.362 25.0385 18.3849 25.0385 19.5658ZM20.9192 18.5566C20.9192 18.0623 20.7545 17.6778 20.4249 17.4032C20.0954 17.1148 19.6835 16.9706 19.1891 16.9706C18.6948 16.9706 18.2898 17.108 17.9739 17.3826C17.6581 17.6435 17.4522 18.0348 17.3561 18.5566H20.9192Z" fill="#3D3D3D"/>
<path d="M4.0369 15.5297C4.35271 14.9805 4.79897 14.5548 5.37567 14.2528C5.95237 13.9369 6.63205 13.779 7.41472 13.779C8.33469 13.779 9.16541 14.0193 9.90688 14.4999C10.6621 14.9805 11.2525 15.667 11.6782 16.5596C12.1176 17.4521 12.3373 18.4956 12.3373 19.6902C12.3373 20.8848 12.1176 21.9352 11.6782 22.8415C11.2525 23.734 10.6621 24.4205 9.90688 24.9011C9.16541 25.3817 8.33469 25.622 7.41472 25.622C6.63205 25.622 5.95237 25.4709 5.37567 25.1689C4.79897 24.8531 4.35271 24.4205 4.0369 23.8713V25.4778H0V10.2365H4.0369V15.5297ZM8.23857 19.6902C8.23857 18.935 8.03261 18.3514 7.62068 17.9395C7.22248 17.5139 6.72817 17.301 6.13774 17.301C5.54731 17.301 5.04613 17.5139 4.6342 17.9395C4.236 18.3652 4.0369 18.9487 4.0369 19.6902C4.0369 20.4454 4.236 21.0358 4.6342 21.4615C5.04613 21.8872 5.54731 22.1 6.13774 22.1C6.72817 22.1 7.22248 21.8872 7.62068 21.4615C8.03261 21.0221 8.23857 20.4317 8.23857 19.6902Z" fill="#3D3D3D"/>
<rect x="47.2034" y="13.8359" width="4.47749" height="11.6415" fill="#3D3D3D"/>
<path d="M39.5548 6.80744C39.4865 6.91684 39.4226 7.02744 39.3633 7.13863C38.8891 8.02838 38.7004 8.96874 39.0017 9.72007C39.1096 9.98918 39.4063 10.1226 39.6589 10.0451C39.9116 9.96758 40.0955 9.6929 40.0854 9.32946C40.0678 8.70196 40.4738 8.27449 40.9822 8.14648C41.4907 8.01843 42.0885 8.18686 42.4808 8.86567C42.9451 9.6691 43.989 10.6776 45.335 11.1671C46.6812 11.6566 48.3431 11.5892 49.9036 10.2077C50.5057 9.67463 51.1852 8.86866 51.5216 7.91973C51.8842 6.94138 51.9893 5.61987 51.5614 5.05828C51.6257 5.34761 51.6266 5.6233 51.5889 5.89064C51.3956 5.2774 50.9874 4.66348 50.2877 4.09617L49.9375 3.81223L49.9485 4.25963C49.9555 4.54754 49.9655 4.82591 49.9497 5.07287C49.8653 4.94969 49.7489 4.81318 49.5922 4.64404C49.759 5.04635 49.8079 5.4175 49.7497 5.78309C49.6284 5.95773 49.4322 6.08307 49.0791 6.15879C48.7097 6.23802 48.2256 6.12249 47.6673 5.89597C47.109 5.66946 46.4828 5.34105 45.8197 5.04636C44.4934 4.45701 42.9772 3.99569 41.5517 4.84119C40.7263 5.33071 40.0329 6.04136 39.5548 6.80744ZM39.9097 7.02927C40.3542 6.31859 41.0064 5.64976 41.7677 5.19822C43.0272 4.45122 44.3597 4.8505 45.6528 5.42504C46.2993 5.71233 46.9255 6.04169 47.5131 6.28005C47.6823 6.34875 47.8488 6.41025 48.0125 6.46091C47.8271 6.76381 47.5197 6.89323 47.0208 6.97618C47.7115 7.20211 47.8882 7.18657 48.4298 7.14976C47.9267 7.60187 47.0114 7.91362 46.1864 7.95396C46.9393 8.50596 47.8464 8.43008 48.2482 8.32511C47.6638 8.64501 46.6945 9.0076 45.474 8.9016C46.2814 9.4262 47.3537 9.73693 48.2178 9.60698C47.5735 10.1421 45.4664 9.66695 44.6627 9.72419C45.1628 10.3842 46.3898 10.8673 47.4311 10.9949C46.7426 11.1009 46.0818 10.998 45.4749 10.7773C44.241 10.3286 43.2434 9.356 42.8418 8.66126C42.3683 7.84186 41.5537 7.57342 40.8763 7.74394C40.1989 7.91452 39.6456 8.52112 39.6685 9.33705C39.6751 9.57224 39.5894 9.6309 39.5326 9.64829C39.4759 9.66571 39.4234 9.65554 39.3888 9.56933C39.1573 8.99192 39.2942 8.1575 39.7322 7.33576C39.7869 7.23305 39.8462 7.13079 39.9097 7.02927Z" fill="#3D3D3D"/>
</svg>
