<svg viewBox="0 0 132 36" fill="none" xmlns="http://www.w3.org/2000/svg">
<path d="M128.174 14.731C127.01 14.731 126.07 14.4178 125.354 13.7912C124.661 13.1423 124.314 12.3368 124.314 11.3746C124.314 10.39 124.661 9.57328 125.354 8.92437C126.07 8.27545 127.01 7.951 128.174 7.951C129.315 7.951 130.232 8.27545 130.926 8.92437C131.642 9.57328 132 10.39 132 11.3746C132 12.3368 131.642 13.1423 130.926 13.7912C130.232 14.4178 129.315 14.731 128.174 14.731ZM131.429 16.4764V35.3061H124.851V16.4764H131.429Z" fill="url(#paint0_linear_2039_55)"/>
<path d="M116.417 19.8001C117.156 18.726 118.051 17.8757 119.103 17.2492C120.154 16.6226 121.284 16.3094 122.493 16.3094V23.3244H120.646C119.214 23.3244 118.152 23.6041 117.458 24.1635C116.764 24.7229 116.417 25.6962 116.417 27.0836V35.3069H109.839V16.4772H116.417V19.8001Z" fill="url(#paint1_linear_2039_55)"/>
<path d="M85.9508 25.874C85.9508 23.9272 86.2976 22.2266 86.9913 20.7722C87.7073 19.3177 88.6695 18.1989 89.8778 17.4157C91.1085 16.6325 92.4735 16.241 93.9727 16.241C95.2705 16.241 96.3893 16.4983 97.3291 17.0129C98.2689 17.5276 98.9962 18.2213 99.5108 19.0939V16.4759H106.089V35.3056H99.5108V32.6876C98.9962 33.5603 98.2578 34.2539 97.2956 34.7686C96.3558 35.2832 95.2481 35.5406 93.9727 35.5406C92.4735 35.5406 91.1085 35.149 89.8778 34.3658C88.6695 33.5826 87.7073 32.4638 86.9913 31.0094C86.2976 29.5325 85.9508 27.8207 85.9508 25.874ZM99.5108 25.874C99.5108 24.6657 99.1752 23.7147 98.5039 23.021C97.855 22.3273 97.0494 21.9805 96.0872 21.9805C95.1027 21.9805 94.286 22.3273 93.637 23.021C92.9881 23.6923 92.6637 24.6433 92.6637 25.874C92.6637 27.0823 92.9881 28.0445 93.637 28.7605C94.286 29.4542 95.1027 29.801 96.0872 29.801C97.0494 29.801 97.855 29.4542 98.5039 28.7605C99.1752 28.0669 99.5108 27.1047 99.5108 25.874Z" fill="url(#paint2_linear_2039_55)"/>
<path d="M73.6828 29.7006V35.3059H70.8298C66.0189 35.3059 63.6135 32.9228 63.6135 28.1567V21.9472H61.2975V16.4762H63.6135V11.9114H70.2257V16.4762H73.6493V21.9472H70.2257V28.2574C70.2257 28.772 70.3376 29.1412 70.5613 29.365C70.8075 29.5888 71.2102 29.7006 71.7696 29.7006H73.6828Z" fill="url(#paint3_linear_2039_55)"/>
<path d="M51.5182 35.5406C49.8176 35.5406 48.296 35.2609 46.9534 34.7015C45.6332 34.1197 44.5815 33.3365 43.7984 32.3519C43.0376 31.345 42.6124 30.215 42.5229 28.9619H48.9002C48.9897 29.5661 49.2694 30.036 49.7393 30.3716C50.2092 30.7073 50.791 30.8751 51.4846 30.8751C52.0217 30.8751 52.4468 30.7632 52.7601 30.5395C53.0734 30.3157 53.23 30.0248 53.23 29.6668C53.23 29.1969 52.9727 28.85 52.458 28.6263C51.9434 28.4025 51.093 28.1564 49.9071 27.8879C48.5645 27.6193 47.4457 27.3173 46.5506 26.9816C45.6556 26.646 44.8724 26.0977 44.2011 25.3369C43.5522 24.5761 43.2278 23.5468 43.2278 22.249C43.2278 21.1302 43.5298 20.1233 44.134 19.2282C44.7382 18.3108 45.622 17.5835 46.7856 17.0465C47.9715 16.5095 49.3924 16.241 51.0483 16.241C53.5097 16.241 55.4453 16.8451 56.855 18.0534C58.2647 19.2618 59.0814 20.8505 59.3052 22.8196H53.3643C53.2524 22.2154 52.9839 21.7567 52.5587 21.4435C52.1559 21.1078 51.6077 20.94 50.914 20.94C50.377 20.94 49.963 21.0407 49.6721 21.2421C49.4036 21.4435 49.2694 21.7232 49.2694 22.0812C49.2694 22.5287 49.5267 22.8755 50.0414 23.1217C50.556 23.3454 51.3839 23.5804 52.5251 23.8265C53.8901 24.1174 55.0201 24.4419 55.9152 24.7999C56.8326 25.1579 57.6269 25.7397 58.2982 26.5453C58.9919 27.3284 59.3387 28.4025 59.3387 29.7675C59.3387 30.8639 59.0143 31.8485 58.3654 32.7211C57.7388 33.5938 56.8326 34.2875 55.6466 34.8022C54.4831 35.2944 53.1069 35.5406 51.5182 35.5406Z" fill="url(#paint4_linear_2039_55)"/>
<path d="M40.8035 25.6726C40.8035 26.1872 40.77 26.7019 40.7028 27.2166H28.2504C28.3175 28.2459 28.5972 29.0179 29.0895 29.5325C29.6042 30.0248 30.2531 30.2709 31.0362 30.2709C32.1327 30.2709 32.9159 29.7787 33.3858 28.7941H40.4008C40.1099 30.0919 39.5393 31.2555 38.689 32.2848C37.861 33.2917 36.8094 34.0861 35.5339 34.6679C34.2584 35.2497 32.8487 35.5406 31.3048 35.5406C29.4475 35.5406 27.7917 35.149 26.3372 34.3658C24.9051 33.5826 23.7751 32.4638 22.9472 31.0094C22.1416 29.5549 21.7389 27.8431 21.7389 25.874C21.7389 23.9049 22.1416 22.2043 22.9472 20.7722C23.7527 19.3177 24.8716 18.1989 26.3036 17.4157C27.7581 16.6325 29.4252 16.241 31.3048 16.241C33.162 16.241 34.8067 16.6213 36.2388 17.3821C37.6708 18.1429 38.7897 19.2394 39.5952 20.6715C40.4008 22.0812 40.8035 23.7482 40.8035 25.6726ZM34.0906 24.0279C34.0906 23.2224 33.8221 22.5958 33.2851 22.1483C32.748 21.6784 32.0768 21.4435 31.2712 21.4435C30.4657 21.4435 29.8056 21.6672 29.2909 22.1147C28.7762 22.5399 28.4406 23.1776 28.284 24.0279H34.0906Z" fill="url(#paint5_linear_2039_55)"/>
<path d="M6.57865 19.0953C7.09331 18.2002 7.82054 17.5066 8.76035 17.0143C9.70016 16.4996 10.8078 16.2423 12.0832 16.2423C13.5825 16.2423 14.9362 16.6339 16.1446 17.4171C17.3753 18.2002 18.3374 19.319 19.0311 20.7735C19.7471 22.228 20.1052 23.9286 20.1052 25.8753C20.1052 27.8221 19.7471 29.5339 19.0311 31.0107C18.3374 32.4652 17.3753 33.584 16.1446 34.3672C14.9362 35.1503 13.5825 35.5419 12.0832 35.5419C10.8078 35.5419 9.70016 35.2958 8.76035 34.8035C7.82054 34.2888 7.09331 33.584 6.57865 32.6889V35.307H0V10.4692H6.57865V19.0953ZM13.4258 25.8753C13.4258 24.6446 13.0902 23.6936 12.4189 23.0223C11.77 22.3287 10.9644 21.9818 10.0022 21.9818C9.04005 21.9818 8.22332 22.3287 7.55203 23.0223C6.90311 23.716 6.57865 24.667 6.57865 25.8753C6.57865 27.106 6.90311 28.0682 7.55203 28.7619C8.22332 29.4555 9.04005 29.8024 10.0022 29.8024C10.9644 29.8024 11.77 29.4555 12.4189 28.7619C13.0902 28.0458 13.4258 27.0836 13.4258 25.8753Z" fill="url(#paint6_linear_2039_55)"/>
<path d="M76.924 16.3349H84.2206V35.3062H76.924V16.3349Z" fill="url(#paint7_linear_2039_55)"/>
<path d="M64.4596 4.88109C64.3483 5.05936 64.2442 5.23959 64.1476 5.4208C63.3748 6.87077 63.0673 8.4032 63.5582 9.62759C63.7341 10.0661 64.2176 10.2836 64.6293 10.1573C65.0411 10.0309 65.3408 9.58332 65.3243 8.99104C65.2956 7.96845 65.9572 7.27183 66.7858 7.06323C67.6145 6.85455 68.5887 7.12902 69.228 8.23523C69.9846 9.54454 71.6857 11.188 73.8793 11.9857C76.073 12.7833 78.7814 12.6736 81.3244 10.4222C82.3056 9.55355 83.4129 8.24012 83.9612 6.69371C84.5521 5.09935 84.7232 2.94578 84.026 2.03061C84.1307 2.50211 84.1323 2.95138 84.0708 3.38704C83.7558 2.38768 83.0906 1.38722 81.9504 0.462711L81.3797 0L81.3975 0.729099C81.409 1.19828 81.4253 1.65191 81.3995 2.05437C81.262 1.85363 81.0722 1.63117 80.8169 1.35554C81.0887 2.01115 81.1683 2.61599 81.0735 3.21176C80.8759 3.49636 80.5561 3.70063 79.9807 3.82403C79.3788 3.95315 78.5899 3.76487 77.68 3.39573C76.7701 3.02659 75.7498 2.49142 74.6692 2.01117C72.5078 1.05076 70.037 0.298975 67.7139 1.67682C66.3688 2.47456 65.2388 3.63265 64.4596 4.88109ZM65.0379 5.24259C65.7624 4.08443 66.8253 2.99449 68.0659 2.25864C70.1184 1.04132 72.2899 1.69199 74.3971 2.62828C75.4507 3.09646 76.4711 3.63319 77.4287 4.02164C77.7045 4.13359 77.9758 4.23382 78.2426 4.31636C77.9405 4.80998 77.4394 5.0209 76.6264 5.15607C77.7521 5.52425 78.04 5.49892 78.9226 5.43894C78.1027 6.17572 76.6112 6.68374 75.2667 6.74949C76.4937 7.64904 77.9718 7.52539 78.6266 7.35432C77.6744 7.87564 76.0947 8.46653 74.1057 8.29379C75.4215 9.14869 77.1689 9.65506 78.5771 9.4433C77.5271 10.3154 74.0934 9.54103 72.7837 9.63431C73.5986 10.7098 75.5982 11.4971 77.2951 11.7051C76.1731 11.8778 75.0963 11.7101 74.1072 11.3505C72.0964 10.6193 70.4706 9.03429 69.8163 7.90212C69.0446 6.56681 67.7172 6.12935 66.6133 6.40724C65.5093 6.68522 64.6077 7.67374 64.6449 9.00341C64.6557 9.38669 64.516 9.48228 64.4235 9.51061C64.331 9.53901 64.2455 9.52242 64.1891 9.38194C63.8118 8.44097 64.035 7.08118 64.7487 5.74204C64.8378 5.57468 64.9345 5.40802 65.0379 5.24259Z" fill="url(#paint8_linear_2039_55)"/>
<defs>
<linearGradient id="paint0_linear_2039_55" x1="0" y1="17.771" x2="132" y2="17.771" gradientUnits="userSpaceOnUse">
<stop stop-color="#8E2DFE"/>
<stop offset="0.413462" stop-color="#A334FE"/>
<stop offset="1" stop-color="#E61655"/>
</linearGradient>
<linearGradient id="paint1_linear_2039_55" x1="0" y1="17.771" x2="132" y2="17.771" gradientUnits="userSpaceOnUse">
<stop stop-color="#8E2DFE"/>
<stop offset="0.413462" stop-color="#A334FE"/>
<stop offset="1" stop-color="#E61655"/>
</linearGradient>
<linearGradient id="paint2_linear_2039_55" x1="0" y1="17.771" x2="132" y2="17.771" gradientUnits="userSpaceOnUse">
<stop stop-color="#8E2DFE"/>
<stop offset="0.413462" stop-color="#A334FE"/>
<stop offset="1" stop-color="#E61655"/>
</linearGradient>
<linearGradient id="paint3_linear_2039_55" x1="0" y1="17.771" x2="132" y2="17.771" gradientUnits="userSpaceOnUse">
<stop stop-color="#8E2DFE"/>
<stop offset="0.413462" stop-color="#A334FE"/>
<stop offset="1" stop-color="#E61655"/>
</linearGradient>
<linearGradient id="paint4_linear_2039_55" x1="0" y1="17.771" x2="132" y2="17.771" gradientUnits="userSpaceOnUse">
<stop stop-color="#8E2DFE"/>
<stop offset="0.413462" stop-color="#A334FE"/>
<stop offset="1" stop-color="#E61655"/>
</linearGradient>
<linearGradient id="paint5_linear_2039_55" x1="0" y1="17.771" x2="132" y2="17.771" gradientUnits="userSpaceOnUse">
<stop stop-color="#8E2DFE"/>
<stop offset="0.413462" stop-color="#A334FE"/>
<stop offset="1" stop-color="#E61655"/>
</linearGradient>
<linearGradient id="paint6_linear_2039_55" x1="0" y1="17.771" x2="132" y2="17.771" gradientUnits="userSpaceOnUse">
<stop stop-color="#8E2DFE"/>
<stop offset="0.413462" stop-color="#A334FE"/>
<stop offset="1" stop-color="#E61655"/>
</linearGradient>
<linearGradient id="paint7_linear_2039_55" x1="0" y1="17.771" x2="132" y2="17.771" gradientUnits="userSpaceOnUse">
<stop stop-color="#8E2DFE"/>
<stop offset="0.413462" stop-color="#A334FE"/>
<stop offset="1" stop-color="#E61655"/>
</linearGradient>
<linearGradient id="paint8_linear_2039_55" x1="0" y1="17.771" x2="132" y2="17.771" gradientUnits="userSpaceOnUse">
<stop stop-color="#8E2DFE"/>
<stop offset="0.413462" stop-color="#A334FE"/>
<stop offset="1" stop-color="#E61655"/>
</linearGradient>
</defs>
</svg>
