<svg  viewBox="0 0 16 16" fill="none" xmlns="http://www.w3.org/2000/svg">
<path d="M12.2053 1.2647C13.861 0.712772 14.6891 0.437059 15.1262 0.874074C15.563 1.31113 15.2874 2.13938 14.7355 3.79497L11.8976 12.3077C11.1133 14.6607 10.7208 15.8378 10.0002 15.8379C9.27942 15.8379 8.88713 14.6609 8.10272 12.3077L7.3537 10.0596L11.7072 5.70708C12.0977 5.31661 12.0976 4.68355 11.7072 4.29302C11.3167 3.9025 10.6837 3.9025 10.2932 4.29302L5.93964 8.64653L3.69257 7.89751C1.33952 7.11316 0.162454 6.72071 0.162292 6.00005C0.162292 5.27929 1.33935 4.88699 3.69257 4.10259L12.2053 1.2647Z" fill="white"/>
</svg>
